<svg xmlns="http://www.w3.org/2000/svg" fill-rule="evenodd" stroke-linejoin="round" stroke-miterlimit="2" clip-rule="evenodd" viewBox="0 0 538 46"><path fill="#009091" fill-rule="nonzero" d="M0 44.3V.3h17.3c4.9 0 9.2 1.6 12.5 4.6 3.2 3.1 4.8 6.9 4.8 11.2 0 4.4-1.6 8.2-4.8 11.2-3.4 3.1-7.7 4.6-12.8 4.6h-6.3v12.2H0zM17.4 11h-6.2v10.4h6.2c3.2 0 6.2-2.2 6.2-5.2S20.5 11 17.4 11zM38.6.3h10.7v16.6H64V.3h10.7v43.9H63.9V27.6H49.3v16.6H38.6V.3zm41.5 44V.3h10.7v43.9H80.1zm16.2 0V.4h16.1c2.6 0 5.2.4 7.6 1.1 2.1.7 4 1.9 5.7 3.4 2.8 2.7 4.5 5.3 4.5 10.2v1.1c0 3-1 5.9-3 8.5-1.4 1.9-2.6 2.8-4.6 3.8l10.6 15.7h-13.1l-13-17.2v17.2H96.3zM119 16c0-1.4-.6-2.5-1.7-3.6-1.1-.9-3.6-1.5-5.6-1.5H107v10.2h6.3c3 .1 5.7-2.1 5.7-5.1zm15.3 28.3L155.5.4h2.5l21.2 43.9h-11.7l-3.3-6.7h-15.1l-3.3 6.7zm19.6-15.5h5.7l-2.8-5.9zM185.3.2L211 23.3V.2h11.1v44h-2.4l-25.6-23v23.1H183V.3h2.3V.2zm44.6 0l25.7 23.1V.2h11.1v44h-2.4l-25.6-23.1v23.1h-11.1V.2zm64-.2c6.7 0 11.7 2.2 16.5 6.6 4.6 4.4 6.9 9.7 6.9 15.8s-2.3 11.4-6.9 15.8c-4.8 4.3-9.8 6.5-16.5 6.5-6.8 0-11.8-2.2-16.5-6.5-4.5-4.3-6.8-9.6-6.8-15.7s2.3-11.4 6.8-15.8c4.8-4.5 9.8-6.7 16.5-6.7zm0 10.8c-3.7 0-5.9 1.1-8.5 3.4s-3.9 5-3.9 8.1c0 3.2 1.3 5.8 3.9 8.1 2.6 2.2 4.8 3.3 8.5 3.3 3.6 0 5.8-1.1 8.4-3.3s3.9-4.9 3.9-8.1-1.3-5.8-3.9-8.1c-2.5-2.3-4.8-3.4-8.4-3.4zm38.4-8.7c2.5.1 4.9.7 7 1.5 2.5 1 4.7 2.5 6.7 4.4 1.8 1.8 3.1 4 4 6.5s1.3 5.1 1.3 7.8-.4 5.3-1.3 7.8-2.2 4.7-4 6.5c-1.9 1.9-4.2 3.4-6.7 4.4s-5.2 1.5-8.1 1.5h-10V2.1h11.1zm-1.1 35.1c2.2 0 4.1-.3 5.9-1s3.4-1.7 4.8-3.1 2.4-3 3.1-4.8 1-3.8 1-6-.3-4.2-1-6-1.7-3.4-3.1-4.8c-1.4-1.3-3-2.4-4.8-3.1s-3.8-1-6-1h-4.6v29.8zm47-35.2v5.4h-17.6v12.3h13.2v5.4h-13.2v12.3h17.6v5.4h-23V2h23zm16.6 34.9c.8-.3 1.5-.7 2.2-1.3.6-.5 1.2-1.2 1.6-1.9.4-.8.6-1.6.6-2.4 0-.7-.1-1.4-.5-2s-.7-1.2-1.2-1.6-1.1-.9-1.8-1.2c-.7-.4-1.4-.7-2.1-.9s-1.4-.5-2.2-.7c-1.8-.5-3.4-1.1-4.8-1.9s-2.6-1.8-3.7-3.1c-.7-.9-1.3-1.8-1.7-2.9s-.6-2.2-.6-3.4c0-1.6.3-3.1.9-4.5s1.4-2.7 2.5-3.7c1.1-1.1 2.3-1.9 3.8-2.5 1.4-.6 2.9-.9 4.5-.9 1.4 0 2.8.2 4.1.8 1.3.5 2.5 1.2 3.5 2.1 1.8 1.5 3 3.4 3.6 5.7l-5.4 1.1c-.3-.8-.8-1.6-1.5-2.3-1.2-1.2-2.7-1.8-4.3-1.8-.8 0-1.6.2-2.4.5s-1.4.8-2 1.3c-.6.6-1 1.2-1.4 2-.3.8-.5 1.5-.5 2.4 0 .6.1 1.2.3 1.7s.4 1 .7 1.3c.3.4.6.7 1.1 1.1.4.3.9.6 1.3.9.4.2.9.5 1.5.7s1.1.4 1.5.5.9.3 1.5.5 1 .3 1.3.4c1 .4 1.9.8 2.8 1.2.9.5 1.7 1 2.6 1.7.8.7 1.5 1.4 2.1 2.2s1.1 1.6 1.4 2.6c.4 1 .5 2 .5 3.1 0 1.6-.3 3.1-1 4.6S402 39 400.9 40s-2.5 1.9-4 2.5-3 .9-4.6.9c-1.7 0-3.4-.4-5-1.1s-3-1.7-4.3-3c-1.2-1.3-2.1-2.8-2.6-4.4l5.4-1.2c.5 1.2 1.4 2.2 2.6 3s2.5 1.2 3.8 1.2c.9-.5 1.8-.7 2.6-1zM408.5 2h5.4v40.5h-5.4zm28.6-.2h1.2c1.4 0 2.8.1 4.1.4 1.4.3 2.7.7 3.8 1.2 1.2.5 2.4 1.2 3.5 1.9.5.3 1.1.8 1.8 1.3l-3.9 3.9c-1.1-.9-2.3-1.6-3.6-2.2-1.8-.7-3.7-1.1-5.7-1.1-2.1 0-4.1.4-5.8 1.1-1.8.7-3.4 1.8-4.9 3.3s-2.6 3.1-3.3 4.9-1.1 3.8-1.1 5.8.4 4 1.1 5.8 1.8 3.4 3.3 4.9 3.1 2.6 4.9 3.3 3.7 1.1 5.8 1.1c1.6 0 3.2-.2 4.7-.7 1.4-.4 2.8-1.1 4.1-2.1 1.1-.8 2-1.7 2.8-2.6.8-1 1.5-2 2-3.2l1.1-2.4h-13.5v-5h19.2c.1 2.9-.3 5.5-1.2 8-1 2.9-2.6 5.4-4.8 7.6-2.1 2-4.3 3.5-6.7 4.5s-5 1.5-7.9 1.5-5.5-.5-7.9-1.5-4.6-2.5-6.6-4.5c-2.1-2.1-3.6-4.3-4.5-6.6-1-2.4-1.5-5-1.5-7.9s.5-5.5 1.5-7.9c.9-2.4 2.5-4.6 4.5-6.7 2-2 4.2-3.5 6.6-4.5 2.2-1.1 4.4-1.5 6.9-1.6zm52 27.6V2h5.4v41.3l-26.4-28.2v27.6h-5.4v-41zm23.6 7.5c.8-.3 1.5-.7 2.2-1.3.6-.5 1.2-1.2 1.6-1.9.4-.8.6-1.6.6-2.4 0-.7-.1-1.4-.5-2s-.7-1.2-1.2-1.6-1.1-.9-1.8-1.2c-.7-.4-1.4-.7-2.1-.9s-1.4-.5-2.2-.7c-1.8-.5-3.4-1.1-4.8-1.9s-2.6-1.8-3.7-3.1c-.7-.9-1.3-1.8-1.7-2.9s-.6-2.2-.6-3.4c0-1.6.3-3.1.9-4.5s1.4-2.7 2.5-3.7c1.1-1.1 2.3-1.9 3.8-2.5 1.4-.6 2.9-.9 4.5-.9 1.4 0 2.8.2 4.1.8 1.3.5 2.5 1.2 3.5 2.1 1.8 1.5 3 3.4 3.6 5.7l-5.4 1.1c-.3-.8-.8-1.6-1.5-2.3-1.2-1.2-2.7-1.8-4.3-1.8-.8 0-1.6.2-2.4.5s-1.4.8-2 1.3c-.6.6-1 1.2-1.4 2-.3.8-.5 1.5-.5 2.4 0 .6.1 1.2.3 1.7s.4 1 .7 1.3c.3.4.6.7 1.1 1.1.4.3.9.6 1.3.9.4.2.9.5 1.5.7s1.1.4 1.5.5.9.3 1.5.5 1 .3 1.3.4c1 .4 1.9.8 2.8 1.2s1.7 1 2.6 1.7c.8.7 1.5 1.4 2.1 2.2s1.1 1.6 1.4 2.6c.4 1 .5 2 .5 3.1 0 1.6-.3 3.1-1 4.6s-1.6 2.7-2.7 3.7-2.5 1.9-4 2.5-3 .9-4.6.9c-1.7 0-3.4-.4-5-1.1s-3-1.7-4.3-3c-1.2-1.3-2.1-2.8-2.6-4.4l5.4-1.2c.5 1.2 1.4 2.2 2.6 3s2.5 1.2 3.8 1.2c.9-.5 1.8-.7 2.6-1zm13.4 3.1c0-3.1 2.6-5.6 5.6-5.6 3.1 0 5.6 2.6 5.6 5.6 0 3.1-2.6 5.6-5.6 5.6s-5.6-2.5-5.6-5.6z"/></svg>