<svg clip-rule="evenodd" fill-rule="evenodd" stroke-linejoin="round" stroke-miterlimit="2" viewBox="0 0 24 24" xmlns="http://www.w3.org/2000/svg" xmlns:xlink="http://www.w3.org/1999/xlink"><linearGradient id="a"><stop offset="0" stop-color="#262626" stop-opacity=".1"/><stop offset="1" stop-color="#262626" stop-opacity="0"/></linearGradient><linearGradient id="b" gradientTransform="matrix(-2.28361286 5.55338575 -5.55338575 -2.28361286 9.535472 12.850234)" gradientUnits="userSpaceOnUse" x1="0" x2="1" xlink:href="#a" y1="0" y2="0"/><linearGradient id="c" gradientTransform="matrix(-6 0 0 -6 12 10.5)" gradientUnits="userSpaceOnUse" x1="0" x2="1" xlink:href="#a" y1="0" y2="0"/><linearGradient id="d" gradientTransform="matrix(-.90028 -.99552 .99552 -.90028 10.299 7.192)" gradientUnits="userSpaceOnUse" x1="0" x2="1" xlink:href="#a" y1="0" y2="0"/><linearGradient id="e" gradientTransform="matrix(3.74742446 11.71187859 -11.71187859 3.74742446 10.995903 6.664598)" gradientUnits="userSpaceOnUse" x1="0" x2="1" y1="0" y2="0"><stop offset="0" stop-color="#fff" stop-opacity=".1"/><stop offset="1" stop-color="#fff" stop-opacity="0"/></linearGradient><path d="m24 6c0-3.311-2.689-6-6-6h-12c-3.311 0-6 2.689-6 6v12c0 3.311 2.689 6 6 6h12c3.311 0 6-2.689 6-6z"/><path d="m12 3 4.125 2.625v3.75h1.875v2.25h-1.688l1.5 9.375h-11.624l1.5-9.375h-1.688v-2.25h1.875v-3.727zm2.201 9.938-4.661 1.695-.54 3.395 5.625-2.062zm-2.196-7.268-1.88 1.207v2.498h3.75v-2.515z" fill="#fff"/><path d="m14.201 12.938-4.661 1.695-.54 3.395 5.625-2.062z"/><g fill-rule="nonzero"><path d="m12 21c-2.042 0-3.95-.01-5.813 0l1.5-9.375h4.326z" fill="url(#b)"/><path d="m13.875 9.375v-2.56l-1.87-1.19-1.88 1.207v2.543z"/><path d="m6 9.375h6v2.25h-6z" fill="url(#c)"/><path d="m12 9.375h-4.125v-3.75l4.125-2.625z" fill="url(#d)"/><path d="m12 3 4.125 2.625v3.75h1.875v2.25h-1.688l1.5 9.375h-11.624l1.5-9.375h-1.688v-2.25h1.875v-3.727z" fill="url(#e)"/></g></svg>